<svg width="246" height="60" viewBox="0 0 246 60" fill="none" xmlns="http://www.w3.org/2000/svg">
<path d="M1.198 42.5834V11.2411H6.58357V37.7717H19.8709V42.5834H1.198Z" fill="#F8D293"/>
<path d="M29.5759 43.2456C28.3987 43.2456 27.3098 43.069 26.3092 42.7158C25.338 42.3627 24.4846 41.8624 23.7489 41.2149C23.0131 40.5675 22.4393 39.8023 22.0272 38.9194C21.6152 38.0366 21.4092 37.0654 21.4092 36.0059C21.4092 34.5345 21.7918 33.2543 22.557 32.1654C23.3516 31.0471 24.4552 30.1789 25.8678 29.5609C27.2804 28.9429 28.9284 28.6339 30.8119 28.6339C31.8419 28.6339 32.8278 28.7369 33.7696 28.9429C34.7113 29.1195 35.6089 29.3843 36.4623 29.7375V28.2807C36.4623 27.2507 36.2711 26.3531 35.8885 25.5879C35.5059 24.7934 34.9614 24.1753 34.2551 23.7339C33.5488 23.2925 32.6954 23.0717 31.6948 23.0717C30.6353 23.0717 29.6789 23.3513 28.8254 23.9105C27.972 24.4696 27.3392 25.2495 26.9272 26.2501L22.248 25.1906C22.6011 23.8958 23.2338 22.7774 24.1462 21.8357C25.0879 20.894 26.2062 20.1582 27.5011 19.6285C28.8254 19.0988 30.2527 18.8339 31.7831 18.8339C33.2251 18.8339 34.5347 19.0693 35.7119 19.5402C36.9185 20.0111 37.9485 20.6732 38.802 21.5267C39.6554 22.3801 40.3176 23.3955 40.7885 24.5726C41.2593 25.7498 41.4948 27.0594 41.4948 28.5015V42.5834H36.8596L36.6831 39.5375C36.065 40.6558 35.138 41.5534 33.902 42.2303C32.666 42.9071 31.2239 43.2456 29.5759 43.2456ZM26.5299 35.7852C26.5299 36.4327 26.7065 37.0213 27.0597 37.551C27.4128 38.0513 27.8984 38.4486 28.5164 38.7429C29.1639 39.0372 29.9143 39.1843 30.7678 39.1843C31.8566 39.1843 32.8278 38.9489 33.6813 38.478C34.5347 38.0071 35.2116 37.3744 35.7119 36.5798C36.2122 35.7558 36.4623 34.8288 36.4623 33.7987V33.269C35.6972 32.9453 34.9026 32.6951 34.0786 32.5186C33.284 32.3126 32.4599 32.2096 31.6065 32.2096C30.0762 32.2096 28.8401 32.5333 27.8984 33.1807C26.9861 33.8282 26.5299 34.6963 26.5299 35.7852Z" fill="#F8D293"/>
<path d="M45.1292 42.5834V19.4961H49.7643L49.9409 22.6744C50.6178 21.4973 51.5595 20.5702 52.7661 19.8934C54.0022 19.1871 55.4148 18.8339 57.004 18.8339C58.7403 18.8339 60.2412 19.2459 61.5067 20.0699C62.8015 20.894 63.8021 22.0564 64.5084 23.5573C65.2148 25.0582 65.5679 26.824 65.5679 28.8546V42.5834H60.4913V29.4285C60.4913 27.545 60.0646 26.0735 59.2112 25.0141C58.3871 23.9546 57.2247 23.4249 55.7238 23.4249C54.6643 23.4249 53.7079 23.675 52.8544 24.1753C52.0304 24.6756 51.3829 25.3525 50.9121 26.206C50.4412 27.0594 50.2058 28.0453 50.2058 29.1636V42.5834H45.1292Z" fill="#F8D293"/>
<path d="M78.9672 43.2456C77.4368 43.2456 76.0095 42.9366 74.6852 42.3185C73.3903 41.7005 72.2573 40.8471 71.2861 39.7582C70.3149 38.6693 69.5498 37.3891 68.9906 35.9177C68.4609 34.4462 68.196 32.857 68.196 31.1501C68.196 29.4138 68.4756 27.7951 69.0348 26.2943C69.5939 24.7934 70.3738 23.4837 71.3744 22.3654C72.375 21.2471 73.5374 20.3789 74.8618 19.7609C76.2155 19.1429 77.6723 18.8339 79.232 18.8339C80.7623 18.8339 82.1602 19.1576 83.4257 19.8051C84.6912 20.4525 85.7359 21.3648 86.5599 22.542V9.74023H91.6365V42.5834H87.0014L86.7806 38.8753C85.9566 40.2291 84.8677 41.3032 83.514 42.0978C82.1602 42.863 80.6446 43.2456 78.9672 43.2456ZM80.0266 38.6546C81.2921 38.6546 82.4251 38.3309 83.4257 37.6834C84.4263 37.0065 85.2062 36.0942 85.7653 34.9465C86.3539 33.7987 86.6482 32.5038 86.6482 31.0618C86.6482 29.5903 86.3539 28.2807 85.7653 27.133C85.2062 25.9852 84.4263 25.0876 83.4257 24.4402C82.4251 23.7633 81.2921 23.4249 80.0266 23.4249C78.7611 23.4249 77.6281 23.7633 76.6275 24.4402C75.6269 25.0876 74.8323 25.9852 74.2437 27.133C73.6846 28.2807 73.405 29.5903 73.405 31.0618C73.405 32.5038 73.6846 33.7987 74.2437 34.9465C74.8323 36.0942 75.6269 37.0065 76.6275 37.6834C77.6281 38.3309 78.7611 38.6546 80.0266 38.6546Z" fill="#F8D293"/>
<path d="M100.883 13.051C100.883 13.6102 100.736 14.1252 100.441 14.5961C100.176 15.0669 99.8086 15.4495 99.3377 15.7438C98.8668 16.0087 98.3518 16.1411 97.7927 16.1411C97.2335 16.1411 96.7185 16.0087 96.2476 15.7438C95.7768 15.4495 95.3942 15.0669 95.0999 14.5961C94.835 14.1252 94.7026 13.6102 94.7026 13.051C94.7026 12.4919 94.835 11.9769 95.0999 11.506C95.3942 11.0351 95.7768 10.6673 96.2476 10.4024C96.7185 10.1081 97.2335 9.96095 97.7927 9.96095C98.3518 9.96095 98.8668 10.1081 99.3377 10.4024C99.8086 10.6673 100.176 11.0351 100.441 11.506C100.736 11.9769 100.883 12.4919 100.883 13.051ZM95.2765 42.5834V19.4961H100.353V42.5834H95.2765Z" fill="#F8D293"/>
<path d="M104.012 42.5834V19.4961H108.647L108.823 22.6744C109.5 21.4973 110.442 20.5702 111.649 19.8934C112.885 19.1871 114.297 18.8339 115.886 18.8339C117.623 18.8339 119.124 19.2459 120.389 20.0699C121.684 20.894 122.685 22.0564 123.391 23.5573C124.097 25.0582 124.45 26.824 124.45 28.8546V42.5834H119.374V29.4285C119.374 27.545 118.947 26.0735 118.094 25.0141C117.27 23.9546 116.107 23.4249 114.606 23.4249C113.547 23.4249 112.59 23.675 111.737 24.1753C110.913 24.6756 110.265 25.3525 109.794 26.206C109.324 27.0594 109.088 28.0453 109.088 29.1636V42.5834H104.012Z" fill="#F8D293"/>
<path d="M137.717 42.142C136.216 42.142 134.818 41.8477 133.523 41.2591C132.229 40.6705 131.096 39.8612 130.124 38.8312C129.153 37.7717 128.403 36.5504 127.873 35.1672C127.343 33.7546 127.078 32.2243 127.078 30.5762C127.078 28.9282 127.343 27.3979 127.873 25.9852C128.432 24.5432 129.212 23.2925 130.213 22.233C131.213 21.1735 132.376 20.3495 133.7 19.7609C135.024 19.1429 136.452 18.8339 137.982 18.8339C139.571 18.8339 141.013 19.1871 142.308 19.8934C143.632 20.5702 144.692 21.5267 145.486 22.7627L145.663 19.4961H150.298V40.1555C150.298 41.9212 150.019 43.5251 149.459 44.9672C148.9 46.4386 148.106 47.6894 147.076 48.7194C146.046 49.7789 144.81 50.5882 143.368 51.1474C141.955 51.7065 140.366 51.9861 138.6 51.9861C136.246 51.9861 134.186 51.4564 132.42 50.3969C130.654 49.3374 129.271 47.866 128.27 45.9825L133.082 44.305C133.729 45.3645 134.539 46.1591 135.51 46.6888C136.481 47.248 137.57 47.5275 138.777 47.5275C140.071 47.5275 141.205 47.2332 142.176 46.6447C143.147 46.0855 143.897 45.2762 144.427 44.2167C144.957 43.1867 145.222 41.9654 145.222 40.5528V38.3456C144.398 39.5227 143.338 40.4498 142.043 41.1266C140.748 41.8035 139.306 42.142 137.717 42.142ZM138.777 37.551C140.013 37.551 141.116 37.242 142.087 36.624C143.088 36.0059 143.868 35.1672 144.427 34.1077C145.016 33.0483 145.31 31.8417 145.31 30.4879C145.31 29.1342 145.016 27.9276 144.427 26.8681C143.868 25.8087 143.088 24.9699 142.087 24.3519C141.116 23.7339 140.013 23.4249 138.777 23.4249C137.541 23.4249 136.437 23.7339 135.466 24.3519C134.495 24.9699 133.715 25.8087 133.126 26.8681C132.567 27.9276 132.287 29.1342 132.287 30.4879C132.287 31.8417 132.567 33.0483 133.126 34.1077C133.715 35.1672 134.495 36.0059 135.466 36.624C136.437 37.242 137.541 37.551 138.777 37.551Z" fill="#F8D293"/>
<path d="M160.653 42.5834L151.824 19.4961H157.387L163.302 37.2861L169.261 19.4961H174.647L165.818 42.5834H160.653Z" fill="#F8D293"/>
<path d="M182.502 43.2456C181.325 43.2456 180.236 43.069 179.235 42.7158C178.264 42.3627 177.411 41.8624 176.675 41.2149C175.939 40.5675 175.365 39.8023 174.953 38.9194C174.541 38.0366 174.335 37.0654 174.335 36.0059C174.335 34.5345 174.718 33.2543 175.483 32.1654C176.278 31.0471 177.381 30.1789 178.794 29.5609C180.206 28.9429 181.854 28.6339 183.738 28.6339C184.768 28.6339 185.754 28.7369 186.696 28.9429C187.637 29.1195 188.535 29.3843 189.388 29.7375V28.2807C189.388 27.2507 189.197 26.3531 188.815 25.5879C188.432 24.7934 187.887 24.1753 187.181 23.7339C186.475 23.2925 185.621 23.0717 184.621 23.0717C183.561 23.0717 182.605 23.3513 181.751 23.9105C180.898 24.4696 180.265 25.2495 179.853 26.2501L175.174 25.1906C175.527 23.8958 176.16 22.7774 177.072 21.8357C178.014 20.894 179.132 20.1582 180.427 19.6285C181.751 19.0988 183.179 18.8339 184.709 18.8339C186.151 18.8339 187.461 19.0693 188.638 19.5402C189.845 20.0111 190.875 20.6732 191.728 21.5267C192.581 22.3801 193.244 23.3955 193.715 24.5726C194.185 25.7498 194.421 27.0594 194.421 28.5015V42.5834H189.786L189.609 39.5375C188.991 40.6558 188.064 41.5534 186.828 42.2303C185.592 42.9071 184.15 43.2456 182.502 43.2456ZM179.456 35.7852C179.456 36.4327 179.633 37.0213 179.986 37.551C180.339 38.0513 180.824 38.4486 181.442 38.7429C182.09 39.0372 182.84 39.1843 183.694 39.1843C184.783 39.1843 185.754 38.9489 186.607 38.478C187.461 38.0071 188.138 37.3744 188.638 36.5798C189.138 35.7558 189.388 34.8288 189.388 33.7987V33.269C188.623 32.9453 187.829 32.6951 187.005 32.5186C186.21 32.3126 185.386 32.2096 184.533 32.2096C183.002 32.2096 181.766 32.5333 180.824 33.1807C179.912 33.8282 179.456 34.6963 179.456 35.7852Z" fill="#F8D293"/>
<path d="M208.208 43.2456C206.148 43.2456 204.353 42.8041 202.823 41.9212C201.322 41.0384 200.145 39.7876 199.291 38.169C198.467 36.521 198.055 34.5933 198.055 32.3861V19.4961H203.132V32.4744C203.132 34.3873 203.588 35.9029 204.5 37.0213C205.413 38.1101 206.663 38.6546 208.253 38.6546C209.842 38.6546 211.092 38.1101 212.005 37.0213C212.917 35.9029 213.373 34.3873 213.373 32.4744V19.4961H218.45V32.3861C218.45 34.5639 218.023 36.4768 217.17 38.1249C216.346 39.7435 215.168 41.0089 213.638 41.9212C212.108 42.8041 210.298 43.2456 208.208 43.2456Z" fill="#F8D293"/>
<path d="M222.094 42.5834V9.74023H227.171V42.5834H222.094Z" fill="#F8D293"/>
<path d="M240.365 43.2456C238.04 43.2456 236.215 42.5834 234.891 41.2591C233.566 39.9053 232.904 37.9777 232.904 35.4762V23.6015H228.843V19.4961H232.904V11.6826H237.981V19.4961H244.691V23.6015H237.981V34.9465C237.981 36.1825 238.231 37.139 238.731 37.8158C239.261 38.4633 240.026 38.787 241.027 38.787C241.556 38.787 242.13 38.7134 242.748 38.5663C243.366 38.3897 243.94 38.1543 244.47 37.86L245.618 41.7005C244.941 42.1714 244.146 42.5393 243.234 42.8041C242.351 43.0984 241.395 43.2456 240.365 43.2456Z" fill="#F8D293"/>
</svg>
