<svg width="1320" height="133" viewBox="0 0 1320 133" fill="none" xmlns="http://www.w3.org/2000/svg">
<path d="M0 174V9.66667H32.625V147.658H108.75V174H0Z" fill="#F8D293"/>
<path d="M149.487 87H118.312C122.42 58.2417 143.445 40.8417 176.07 40.8417C212.078 40.8417 230.445 62.1083 230.445 92.075V142.342C230.445 158.292 231.895 167.233 234.312 174H202.17C200.478 169.65 199.753 163.367 199.512 156.358C188.878 171.342 172.928 177.625 157.462 177.625C132.087 177.625 113.962 165.058 113.962 140.167C113.962 122.525 123.87 109.233 143.687 102.708C160.845 96.9083 177.52 95.4583 199.27 95.2167V92.075C199.27 75.4 191.295 66.4583 174.137 66.4583C159.395 66.4583 151.42 74.675 149.487 87ZM145.137 138.475C145.137 148.383 152.87 154.667 165.437 154.667C184.528 154.667 199.27 139.2 199.27 119.867V114.308C155.287 115.033 145.137 125.425 145.137 138.475Z" fill="#F8D293"/>
<path d="M249.942 174V44.4667H280.875V61.8667C289.333 47.85 302.867 40.8417 319.3 40.8417C345.158 40.8417 362.8 56.3083 362.8 87.725V174H331.867V94.0083C331.867 76.3667 324.375 66.4583 308.667 66.4583C291.508 66.4583 280.875 81.4417 280.875 98.8417V174H249.942Z" fill="#F8D293"/>
<path d="M429.882 177.625C396.049 177.625 375.266 151.767 375.266 109.475C375.266 65.4917 396.532 40.8417 429.882 40.8417C444.141 40.8417 455.982 46.8833 463.957 58.4833V0H494.891V174H463.957V159.258C455.741 171.1 444.141 177.625 429.882 177.625ZM435.441 152.008C454.049 152.008 463.957 137.025 463.957 109.475C463.957 81.925 453.566 66.4583 435.441 66.4583C417.074 66.4583 407.166 81.6833 407.166 109.475C407.166 136.783 417.316 152.008 435.441 152.008Z" fill="#F8D293"/>
<path d="M513.145 29.9667V0H544.078V29.9667H513.145ZM513.145 174V44.4667H544.078V174H513.145Z" fill="#F8D293"/>
<path d="M562.381 174V44.4667H593.315V61.8667C601.773 47.85 615.306 40.8417 631.74 40.8417C657.598 40.8417 675.24 56.3083 675.24 87.725V174H644.307V94.0083C644.307 76.3667 636.815 66.4583 621.107 66.4583C603.948 66.4583 593.315 81.4417 593.315 98.8417V174H562.381Z" fill="#F8D293"/>
<path d="M740.872 174.483C708.005 174.483 687.705 149.108 687.705 107.783C687.705 64.7667 708.489 40.8417 740.872 40.8417C756.339 40.8417 768.422 46.6417 776.397 57.5167V44.4667H807.33V178.108C807.33 213.15 783.164 231.033 751.022 231.033C719.122 231.033 695.922 216.292 691.33 185.6H722.505C724.439 199.375 735.555 206.625 750.539 206.625C766.005 206.625 776.397 199.133 776.397 178.592V156.842C767.939 168.442 755.855 174.483 740.872 174.483ZM747.88 148.867C766.489 148.867 776.397 134.367 776.397 107.783C776.397 81.4417 766.005 66.4583 747.88 66.4583C729.514 66.4583 719.605 80.9583 719.605 107.783C719.605 134.125 729.514 148.867 747.88 148.867Z" fill="#F8D293"/>
<path d="M858.929 174L812.287 44.4667H845.637L875.604 135.817L878.987 149.833L882.129 135.817L912.096 44.4667H943.754L897.112 174H858.929Z" fill="#F8D293"/>
<path d="M977.241 87H946.066C950.174 58.2417 971.199 40.8417 1003.82 40.8417C1039.83 40.8417 1058.2 62.1083 1058.2 92.075V142.342C1058.2 158.292 1059.65 167.233 1062.07 174H1029.92C1028.23 169.65 1027.51 163.367 1027.27 156.358C1016.63 171.342 1000.68 177.625 985.216 177.625C959.841 177.625 941.716 165.058 941.716 140.167C941.716 122.525 951.624 109.233 971.441 102.708C988.599 96.9083 1005.27 95.4583 1027.02 95.2167V92.075C1027.02 75.4 1019.05 66.4583 1001.89 66.4583C987.149 66.4583 979.174 74.675 977.241 87ZM972.891 138.475C972.891 148.383 980.624 154.667 993.191 154.667C1012.28 154.667 1027.02 139.2 1027.02 119.867V114.308C983.041 115.033 972.891 125.425 972.891 138.475Z" fill="#F8D293"/>
<path d="M1158.17 119.625V44.4667H1189.1V174H1158.17V156.6C1149.71 170.858 1136.42 177.625 1120.47 177.625C1094.85 177.625 1077.7 162.158 1077.7 130.983V44.4667H1108.63V124.7C1108.63 142.342 1115.88 152.008 1131.1 152.008C1147.78 152.008 1158.17 137.025 1158.17 119.625Z" fill="#F8D293"/>
<path d="M1207.65 174V0H1238.58V174H1207.65Z" fill="#F8D293"/>
<path d="M1260.99 133.642V68.3917H1244.32V44.4667H1260.99V14.7417H1291.92V44.4667H1319.23V68.3917H1291.92V130.983C1291.92 144.517 1295.79 151.767 1312.95 151.767H1318.75V174.483C1315.37 176.175 1308.36 177.625 1299.9 177.625C1273.56 177.625 1260.99 162.642 1260.99 133.642Z" fill="#F8D293"/>
</svg>
