<svg width="132" height="32" viewBox="0 0 132 32" fill="none" xmlns="http://www.w3.org/2000/svg">
<g id="Landingvault logo">
<g id="Landingvault">
<path d="M1.2467 22.7112V5.9953H4.11901V20.1449H11.2056V22.7112H1.2467Z" fill="#0065E0"/>
<path d="M16.3816 23.0643C15.7537 23.0643 15.173 22.9702 14.6394 22.7818C14.1214 22.5935 13.6662 22.3266 13.2738 21.9813C12.8814 21.636 12.5754 21.2279 12.3556 20.7571C12.1359 20.2862 12.026 19.7682 12.026 19.2032C12.026 18.4184 12.2301 17.7357 12.6382 17.1549C13.0619 16.5585 13.6505 16.0955 14.4039 15.7659C15.1573 15.4362 16.0363 15.2714 17.0408 15.2714C17.5901 15.2714 18.1159 15.3264 18.6182 15.4362C19.1205 15.5304 19.5992 15.6717 20.0544 15.86V15.0831C20.0544 14.5337 19.9523 14.055 19.7483 13.6469C19.5442 13.2232 19.2539 12.8935 18.8772 12.6581C18.5005 12.4227 18.0453 12.305 17.5117 12.305C16.9466 12.305 16.4365 12.4541 15.9813 12.7523C15.5262 13.0505 15.1887 13.4664 14.969 14.0001L12.4734 13.435C12.6617 12.7444 12.9992 12.148 13.4857 11.6457C13.988 11.1435 14.5844 10.7511 15.275 10.4686C15.9813 10.186 16.7426 10.0448 17.5587 10.0448C18.3278 10.0448 19.0263 10.1703 19.6541 10.4215C20.2976 10.6726 20.847 11.0258 21.3022 11.4809C21.7573 11.9361 22.1105 12.4776 22.3616 13.1054C22.6127 13.7333 22.7383 14.4317 22.7383 15.2008V22.7112H20.2662L20.1721 21.0867C19.8425 21.6831 19.3481 22.1618 18.6888 22.5228C18.0296 22.8838 17.2605 23.0643 16.3816 23.0643ZM14.7571 19.0855C14.7571 19.4308 14.8512 19.7447 15.0396 20.0272C15.2279 20.2941 15.4869 20.5059 15.8165 20.6629C16.1618 20.8199 16.5621 20.8983 17.0172 20.8983C17.598 20.8983 18.1159 20.7728 18.5711 20.5216C19.0263 20.2705 19.3873 19.9331 19.6541 19.5093C19.9209 19.0698 20.0544 18.5754 20.0544 18.026V17.7435C19.6463 17.5709 19.2225 17.4374 18.783 17.3433C18.3592 17.2334 17.9197 17.1785 17.4646 17.1785C16.6484 17.1785 15.9892 17.3511 15.4869 17.6964C15.0004 18.0417 14.7571 18.5047 14.7571 19.0855Z" fill="#0065E0"/>
<path d="M24.6767 22.7112V10.3979H27.1488L27.2429 12.0931C27.6039 11.4652 28.1062 10.9708 28.7497 10.6098C29.4089 10.2331 30.1623 10.0448 31.0099 10.0448C31.9359 10.0448 32.7364 10.2645 33.4113 10.704C34.1019 11.1435 34.6356 11.7635 35.0123 12.5639C35.389 13.3644 35.5773 14.3062 35.5773 15.3892V22.7112H32.8698V15.6952C32.8698 14.6907 32.6422 13.9059 32.1871 13.3409C31.7476 12.7758 31.1276 12.4933 30.3271 12.4933C29.7621 12.4933 29.252 12.6267 28.7968 12.8935C28.3573 13.1604 28.012 13.5214 27.7609 13.9765C27.5098 14.4317 27.3842 14.9575 27.3842 15.554V22.7112H24.6767Z" fill="#0065E0"/>
<path d="M42.7236 23.0643C41.9074 23.0643 41.1462 22.8995 40.4399 22.5699C39.7493 22.2403 39.145 21.7851 38.627 21.2044C38.1091 20.6237 37.701 19.9409 37.4028 19.1561C37.1202 18.3713 36.979 17.5238 36.979 16.6134C36.979 15.6874 37.1281 14.8241 37.4263 14.0236C37.7245 13.2232 38.1405 12.5247 38.6741 11.9283C39.2078 11.3318 39.8277 10.8688 40.534 10.5392C41.2561 10.2096 42.033 10.0448 42.8649 10.0448C43.681 10.0448 44.4266 10.2174 45.1015 10.5627C45.7764 10.908 46.3336 11.3946 46.7731 12.0224V5.19482H49.4806V22.7112H47.0085L46.8908 20.7335C46.4513 21.4555 45.8706 22.0284 45.1486 22.4522C44.4266 22.8603 43.6182 23.0643 42.7236 23.0643ZM43.2886 20.6158C43.9635 20.6158 44.5678 20.4432 45.1015 20.0979C45.6351 19.7369 46.0511 19.2503 46.3493 18.6382C46.6632 18.026 46.8202 17.3354 46.8202 16.5663C46.8202 15.7815 46.6632 15.0831 46.3493 14.471C46.0511 13.8588 45.6351 13.3801 45.1015 13.0348C44.5678 12.6738 43.9635 12.4933 43.2886 12.4933C42.6137 12.4933 42.0094 12.6738 41.4758 13.0348C40.9421 13.3801 40.5184 13.8588 40.2044 14.471C39.9062 15.0831 39.7571 15.7815 39.7571 16.5663C39.7571 17.3354 39.9062 18.026 40.2044 18.6382C40.5184 19.2503 40.9421 19.7369 41.4758 20.0979C42.0094 20.4432 42.6137 20.6158 43.2886 20.6158Z" fill="#0065E0"/>
<path d="M54.4119 6.96059C54.4119 7.2588 54.3334 7.53348 54.1765 7.78461C54.0352 8.03574 53.839 8.23978 53.5879 8.39674C53.3368 8.538 53.0621 8.60863 52.7639 8.60863C52.4656 8.60863 52.191 8.538 51.9398 8.39674C51.6887 8.23978 51.4847 8.03574 51.3277 7.78461C51.1865 7.53348 51.1158 7.2588 51.1158 6.96059C51.1158 6.66237 51.1865 6.38769 51.3277 6.13656C51.4847 5.88543 51.6887 5.68924 51.9398 5.54798C52.191 5.39102 52.4656 5.31254 52.7639 5.31254C53.0621 5.31254 53.3368 5.39102 53.5879 5.54798C53.839 5.68924 54.0352 5.88543 54.1765 6.13656C54.3334 6.38769 54.4119 6.66237 54.4119 6.96059ZM51.4219 22.7112V10.3979H54.1294V22.7112H51.4219Z" fill="#0065E0"/>
<path d="M56.0806 22.7112V10.3979H58.5527L58.6469 12.0931C59.0079 11.4652 59.5101 10.9708 60.1537 10.6098C60.8129 10.2331 61.5663 10.0448 62.4138 10.0448C63.3399 10.0448 64.1404 10.2645 64.8153 10.704C65.5059 11.1435 66.0395 11.7635 66.4162 12.5639C66.7929 13.3644 66.9813 14.3062 66.9813 15.3892V22.7112H64.2738V15.6952C64.2738 14.6907 64.0462 13.9059 63.591 13.3409C63.1515 12.7758 62.5316 12.4933 61.7311 12.4933C61.166 12.4933 60.6559 12.6267 60.2007 12.8935C59.7613 13.1604 59.416 13.5214 59.1648 13.9765C58.9137 14.4317 58.7881 14.9575 58.7881 15.554V22.7112H56.0806Z" fill="#0065E0"/>
<path d="M74.0569 22.4757C73.2564 22.4757 72.5109 22.3188 71.8203 22.0049C71.1297 21.691 70.5254 21.2593 70.0074 20.71C69.4895 20.1449 69.0892 19.4936 68.8067 18.7559C68.5242 18.0025 68.3829 17.1863 68.3829 16.3074C68.3829 15.4284 68.5242 14.6122 68.8067 13.8588C69.1049 13.0897 69.5209 12.4227 70.0545 11.8576C70.5882 11.2926 71.2082 10.8531 71.9145 10.5392C72.6208 10.2096 73.382 10.0448 74.1982 10.0448C75.0457 10.0448 75.8148 10.2331 76.5054 10.6098C77.2117 10.9708 77.7768 11.4809 78.2006 12.1402L78.2947 10.3979H80.7668V21.4163C80.7668 22.358 80.6177 23.2134 80.3195 23.9825C80.0213 24.7673 79.5975 25.4344 79.0481 25.9837C78.4988 26.5488 77.8396 26.9804 77.0705 27.2786C76.3171 27.5768 75.4695 27.7259 74.5278 27.7259C73.2721 27.7259 72.1734 27.4434 71.2317 26.8784C70.29 26.3133 69.5523 25.5286 69.0186 24.524L71.5848 23.6294C71.9302 24.1944 72.3618 24.6182 72.8797 24.9007C73.3977 25.1989 73.9784 25.3481 74.622 25.3481C75.3126 25.3481 75.9168 25.1911 76.4348 24.8772C76.9528 24.579 77.353 24.1473 77.6355 23.5823C77.918 23.0329 78.0593 22.3816 78.0593 21.6282V20.451C77.6198 21.0788 77.0548 21.5732 76.3642 21.9342C75.6736 22.2952 74.9045 22.4757 74.0569 22.4757ZM74.622 20.0272C75.2812 20.0272 75.8698 19.8624 76.3877 19.5328C76.9214 19.2032 77.3373 18.7559 77.6355 18.1908C77.9494 17.6258 78.1064 16.9823 78.1064 16.2603C78.1064 15.5383 77.9494 14.8947 77.6355 14.3297C77.3373 13.7647 76.9214 13.3173 76.3877 12.9877C75.8698 12.6581 75.2812 12.4933 74.622 12.4933C73.9627 12.4933 73.3742 12.6581 72.8562 12.9877C72.3382 13.3173 71.9223 13.7647 71.6084 14.3297C71.3102 14.8947 71.1611 15.5383 71.1611 16.2603C71.1611 16.9823 71.3102 17.6258 71.6084 18.1908C71.9223 18.7559 72.3382 19.2032 72.8562 19.5328C73.3742 19.8624 73.9627 20.0272 74.622 20.0272Z" fill="#0065E0"/>
<path d="M86.2895 22.7112L81.5808 10.3979H84.5473L87.7021 19.886L90.8805 10.3979H93.7528L89.0441 22.7112H86.2895Z" fill="#0065E0"/>
<path d="M97.9421 23.0643C97.3143 23.0643 96.7336 22.9702 96.1999 22.7818C95.682 22.5935 95.2268 22.3266 94.8344 21.9813C94.442 21.636 94.1359 21.2279 93.9162 20.7571C93.6965 20.2862 93.5866 19.7682 93.5866 19.2032C93.5866 18.4184 93.7906 17.7357 94.1987 17.1549C94.6225 16.5585 95.2111 16.0955 95.9645 15.7659C96.7179 15.4362 97.5968 15.2714 98.6013 15.2714C99.1507 15.2714 99.6765 15.3264 100.179 15.4362C100.681 15.5304 101.16 15.6717 101.615 15.86V15.0831C101.615 14.5337 101.513 14.055 101.309 13.6469C101.105 13.2232 100.814 12.8935 100.438 12.6581C100.061 12.4227 99.6059 12.305 99.0722 12.305C98.5072 12.305 97.9971 12.4541 97.5419 12.7523C97.0867 13.0505 96.7493 13.4664 96.5295 14.0001L94.0339 13.435C94.2223 12.7444 94.5597 12.148 95.0463 11.6457C95.5485 11.1435 96.145 10.7511 96.8356 10.4686C97.5419 10.186 98.3031 10.0448 99.1193 10.0448C99.8884 10.0448 100.587 10.1703 101.215 10.4215C101.858 10.6726 102.408 11.0258 102.863 11.4809C103.318 11.9361 103.671 12.4776 103.922 13.1054C104.173 13.7333 104.299 14.4317 104.299 15.2008V22.7112H101.827L101.733 21.0867C101.403 21.6831 100.909 22.1618 100.249 22.5228C99.5902 22.8838 98.8211 23.0643 97.9421 23.0643ZM96.3176 19.0855C96.3176 19.4308 96.4118 19.7447 96.6002 20.0272C96.7885 20.2941 97.0475 20.5059 97.3771 20.6629C97.7224 20.8199 98.1226 20.8983 98.5778 20.8983C99.1585 20.8983 99.6765 20.7728 100.132 20.5216C100.587 20.2705 100.948 19.9331 101.215 19.5093C101.481 19.0698 101.615 18.5754 101.615 18.026V17.7435C101.207 17.5709 100.783 17.4374 100.344 17.3433C99.9198 17.2334 99.4803 17.1785 99.0251 17.1785C98.209 17.1785 97.5497 17.3511 97.0475 17.6964C96.5609 18.0417 96.3176 18.5047 96.3176 19.0855Z" fill="#0065E0"/>
<path d="M111.652 23.0643C110.554 23.0643 109.596 22.8289 108.78 22.358C107.979 21.8872 107.352 21.2201 106.896 20.3568C106.457 19.4779 106.237 18.4498 106.237 17.2726V10.3979H108.945V17.3197C108.945 18.3399 109.188 19.1483 109.675 19.7447C110.161 20.3254 110.828 20.6158 111.676 20.6158C112.523 20.6158 113.19 20.3254 113.677 19.7447C114.164 19.1483 114.407 18.3399 114.407 17.3197V10.3979H117.114V17.2726C117.114 18.4341 116.887 19.4543 116.432 20.3333C115.992 21.1966 115.364 21.8715 114.548 22.358C113.732 22.8289 112.767 23.0643 111.652 23.0643Z" fill="#0065E0"/>
<path d="M119.058 22.7112V5.19482H121.766V22.7112H119.058Z" fill="#0065E0"/>
<path d="M128.802 23.0643C127.562 23.0643 126.589 22.7112 125.883 22.0049C125.176 21.2829 124.823 20.2548 124.823 18.9207V12.5875H122.657V10.3979H124.823V6.23074H127.531V10.3979H131.109V12.5875H127.531V18.6382C127.531 19.2974 127.664 19.8075 127.931 20.1685C128.214 20.5138 128.622 20.6864 129.155 20.6864C129.438 20.6864 129.744 20.6472 130.074 20.5687C130.403 20.4746 130.709 20.349 130.992 20.192L131.604 22.2403C131.243 22.4914 130.819 22.6876 130.333 22.8289C129.862 22.9859 129.352 23.0643 128.802 23.0643Z" fill="#0065E0"/>
</g>
</g>
</svg>
